Source: Layer.Cake.2004.BluRay.720p.AC3.x264.dxva-EuReKa

Subs: Arabic, Brazilian, Bulgarian, Danish, Dutch, English, Finnish, French, Greek, Icelandic, Indonesian, Norwegian, Romanian, Servian, Swedish and Vietnamese.

Sample and Screens included.

General
Complete name                    : Layer Cake-720p MP4 AAC x264 BRRip 2004-CC.mp4
Format                           : MPEG-4
Format profile                   : Base Media
Codec ID                         : isom
File size                        : 1.89 GiB
Duration                         : 1h 45mn
Overall bit rate                 : 2 574 Kbps
Encoded date                     : UTC 2012-05-13 14:58:56

Video
ID                               : 1
Format                           : AVC
Format/Info                      : Advanced Video Codec
Format profile                   : High@L3.1
Format settings, CABAC           : Yes
Format settings, ReFrames        : 5 frames
Codec ID                         : avc1
Codec ID/Info                    : Advanced Video Coding
Duration                         : 1h 45mn
Bit rate mode                    : Variable
Bit rate                         : 2 185 Kbps
Nominal bit rate                 : 2 212 Kbps
Maximum bit rate                 : 25.9 Mbps
Width                            : 1 280 pixels
Height                           : 528 pixels
Display aspect ratio             : 2.40:1
Frame rate mode                  : Variable
Frame rate                       : 23.976 fps
Minimum frame rate               : 19.048 fps
Maximum frame rate               : 24.390 fps
Resolution                       : 24 bits
Colorimetry                      : 4:2:0
Scan type                        : Progressive
Bits/(Pixel*Frame)               : 0.135
Stream size                      : 1.61 GiB (85%)
Writing library                  : x264 core 112

Audio
ID                               : 2
Format                           : AAC
Format/Info                      : Advanced Audio Codec
Format version                   : Version 4
Format profile                   : LC
Format settings, SBR             : No
Codec ID                         : 40
Duration                         : 1h 45mn
Bit rate mode                    : Variable
Bit rate                         : 384 Kbps
Maximum bit rate                 : 585 Kbps
Channel(s)                       : 6 channels
Channel positions                : Front: L C R, Rear: L R, LFE
Sampling rate                    : 48.0 KHz
Resolution                       : 16 bits
Stream size                      : 289 MiB (15%)
Language                         : English

Enjoy...

Requested by DreamExtractor.